# xmcd
#
# Track frame offsets: 
#        150
#        21374
#        42225
#        60424
#        76076
#        96889
#        116868
#        133383
#        151329
#        178628
#
# Disc length: 2623 seconds
#
# Revision: 1
# Processed by: cddbd v1.5.2PL0 Copyright (c) Steve Scherf et al.
# Submitted via: ExactAudioCopy v1.2
#
DISCID=800a3d0a
DTITLE=Barabás Lőrinc Eklektric - Trick
DYEAR=2009
DGENRE=Jazz
TTITLE0=Strange Night (feat. Sena)
TTITLE1=DDDD
TTITLE2=Moonrise
TTITLE3=Kezdet
TTITLE4=Dóri
TTITLE5=Touch
TTITLE6=Marie
TTITLE7=Stronger
TTITLE8=Trick
TTITLE9=Surrender
EXTD=YEAR: 2009
EXTT0=
EXTT1=
EXTT2=
EXTT3=
EXTT4=
EXTT5=
EXTT6=
EXTT7=
EXTT8=
EXTT9=
PLAYORDER=
